<svg width="20" height="20" viewBox="0 0 20 20" fill="none" xmlns="http://www.w3.org/2000/svg">
<path d="M7.41685 9.49275L8.81645 10.9323C8.88105 10.9988 9.07484 11.0431 9.1825 10.9323C9.30308 10.8083 11.6156 8.41491 12.7568 7.23372C13.0136 6.96795 13.547 6.87936 13.8765 7.23372C14.1995 7.58103 14.1349 8.05317 13.9196 8.29679L9.7208 12.6155C9.44088 12.9034 8.90257 13.2799 8.32121 12.682C7.76742 12.1124 6.82899 11.1353 6.29718 10.5806C6.10361 10.3786 5.79819 9.86925 6.18952 9.44845C6.39548 9.22698 6.83548 8.89477 7.41685 9.49275Z" fill="#24719B"/>
<rect x="0.5" y="0.5" width="19" height="19" rx="2.5" stroke="#24719B"/>
</svg>
